# xmcd
#
# Track frame offsets: 
#        150
#        28009
#        71590
#        108357
#        125214
#        161815
#        198901
#        228191
#        244859
#        275948
#
# Disc length: 4684 seconds
#
# Revision: 0
# Processed by: cddbd v1.5.2PL0 Copyright (c) Steve Scherf et al.
# Submitted via: ExactAudioCopy v1.0b3
#
DISCID=93124a0a
DTITLE=神谷浩史・新谷良子 - DJCD さよなら絶望放送 第八巻
DYEAR=2010
DGENRE=Anime
TTITLE0=神谷浩史・新谷良子 feat. 井上喜久子 - オープニング「雨の午後の恒例会」
TTITLE1=神谷浩史・新谷良子 feat. 井上喜久子 - 井上喜久子のアフタニーンラジオ
TTITLE2=神谷浩史・新谷良子 feat. 井上喜久子 - きっちりしなさい!
TTITLE3=神谷浩史・新谷良子 feat. 井上喜久子 - 自分も罵って下さい!
TTITLE4=神谷浩史・新谷良子 feat. 井上喜久子 - 絶望した!○○に絶望した!
TTITLE5=神谷浩史・新谷良子 feat. 井上喜久子 - 大草麻菜実、17歳です!
TTITLE6=神谷浩史・新谷良子 feat. 井上喜久子 - ポジティブですよね~!
TTITLE7=神谷浩史・新谷良子 feat. 井上喜久子 - エンディング
TTITLE8=神谷浩史・新谷良子 feat. 井上喜久子 - 特別番組「も、もげーっ!きっこおねえちゃん、もげーっ!」
TTITLE9=音ブログ・絶望反省会
EXTD=
EXTT0=
EXTT1=
EXTT2=
EXTT3=
EXTT4=
EXTT5=
EXTT6=
EXTT7=
EXTT8=
EXTT9=
PLAYORDER=
